<svg width="650" height="828" viewBox="0 0 650 828" fill="none" xmlns="http://www.w3.org/2000/svg">
<path d="M211.897 626.837C196.588 579.315 191.246 527.281 224.675 493.852C257.976 460.916 313.254 472.432 353.377 485.358" stroke="#606060" stroke-dasharray="16 16"/>
<path d="M494.857 343.878C479.548 296.356 474.206 244.321 507.635 210.892C540.937 177.957 596.214 189.473 636.337 202.398" stroke="#606060" stroke-dasharray="16 16"/>
<path d="M211.898 626.837C227.207 674.36 232.549 726.394 199.12 759.823C165.819 792.758 110.541 781.243 70.4183 768.317" stroke="#606060" stroke-dasharray="16 16"/>
<path d="M494.858 343.878C510.168 391.4 515.51 443.435 482.081 476.864C448.779 509.799 393.501 498.283 353.379 485.357" stroke="#606060" stroke-dasharray="16 16"/>
<path d="M777.817 60.9189C793.126 108.441 798.468 160.476 765.039 193.905C731.737 226.84 676.46 215.324 636.337 202.398" stroke="#606060" stroke-dasharray="16 16"/>
<path d="M75.7232 763.011C78.652 765.94 78.6513 770.69 75.7209 773.62C72.7905 776.551 68.0408 776.551 65.112 773.623C62.1832 770.694 62.1839 765.944 65.1143 763.014C68.0447 760.083 72.7944 760.083 75.7232 763.011Z" fill="#3B4394" stroke="#606060"/>
<path d="M217.203 621.532C220.132 624.461 220.131 629.211 217.201 632.141C214.271 635.072 209.521 635.072 206.592 632.144C203.663 629.215 203.664 624.465 206.594 621.535C209.525 618.604 214.275 618.604 217.203 621.532Z" fill="#3B4394" stroke="#606060"/>
<path d="M500.164 338.573C503.092 341.502 503.092 346.251 500.161 349.182C497.231 352.112 492.481 352.113 489.552 349.184C486.624 346.255 486.624 341.506 489.555 338.575C492.485 335.645 497.235 335.644 500.164 338.573Z" fill="#3B4394" stroke="#606060"/>
<path d="M358.683 480.052C361.612 482.981 361.611 487.73 358.681 490.661C355.751 493.591 351.001 493.592 348.072 490.663C345.143 487.734 345.144 482.985 348.075 480.054C351.005 477.124 355.755 477.123 358.683 480.052Z" fill="#3B4394" stroke="#606060"/>
<path d="M641.642 197.093C644.571 200.022 644.57 204.771 641.639 207.702C638.709 210.632 633.959 210.633 631.031 207.704C628.102 204.775 628.103 200.026 631.033 197.095C633.963 194.165 638.713 194.164 641.642 197.093Z" fill="#3B4394" stroke="#606060"/>
</svg>
