<svg width="20" height="20" viewBox="0 0 20 20" fill="none" xmlns="http://www.w3.org/2000/svg">
<rect width="20" height="20"  />
<path d="M-526 -278C-526 -279.105 -525.105 -280 -524 -280H883C884.104 -280 885 -279.105 885 -278V684C885 685.105 884.105 686 883 686H-524C-525.105 686 -526 685.105 -526 684V-278Z"  />
<path d="M-524 -279H883V-281H-524V-279ZM884 -278V684H886V-278H884ZM883 685H-524V687H883V685ZM-525 684V-278H-527V684H-525ZM-524 685C-524.552 685 -525 684.552 -525 684H-527C-527 685.657 -525.657 687 -524 687V685ZM884 684C884 684.552 883.552 685 883 685V687C884.657 687 886 685.657 886 684H884ZM883 -279C883.552 -279 884 -278.552 884 -278H886C886 -279.657 884.657 -281 883 -281V-279ZM-524 -281C-525.657 -281 -527 -279.657 -527 -278H-525C-525 -278.552 -524.552 -279 -524 -279V-281Z" fill="white" fill-opacity="0.1"/>
<path d="M12.5 16.5999L7.0667 11.1666C6.42503 10.5249 6.42503 9.4749 7.0667 8.83324L12.5 3.3999" stroke="white" stroke-width="1.5" stroke-miterlimit="10" stroke-linecap="round" stroke-linejoin="round"/>
</svg>
