<svg width="12" height="12" viewBox="0 0 12 12" fill="none" xmlns="http://www.w3.org/2000/svg">
<rect width="12" height="12"  />
<path d="M-462 -327C-462 -328.105 -461.105 -329 -460 -329H947C948.104 -329 949 -328.105 949 -327V635C949 636.105 948.105 637 947 637H-460C-461.105 637 -462 636.105 -462 635V-327Z"  />
<path d="M-460 -328H947V-330H-460V-328ZM948 -327V635H950V-327H948ZM947 636H-460V638H947V636ZM-461 635V-327H-463V635H-461ZM-460 636C-460.552 636 -461 635.552 -461 635H-463C-463 636.657 -461.657 638 -460 638V636ZM948 635C948 635.552 947.552 636 947 636V638C948.657 638 950 636.657 950 635H948ZM947 -328C947.552 -328 948 -327.552 948 -327H950C950 -328.657 948.657 -330 947 -330V-328ZM-460 -330C-461.657 -330 -463 -328.657 -463 -327H-461C-461 -327.552 -460.552 -328 -460 -328V-330Z" fill="white" fill-opacity="0.1"/>
<path d="M4.45496 9.96004L7.71496 6.70004C8.09996 6.31504 8.09996 5.68504 7.71496 5.30004L4.45496 2.04004" stroke="white" stroke-width="1.2" stroke-miterlimit="10" stroke-linecap="round" stroke-linejoin="round"/>
</svg>
