<svg width="20" height="20" viewBox="0 0 20 20" fill="none" xmlns="http://www.w3.org/2000/svg">
<rect width="20" height="20"  />
<path d="M-462 -278C-462 -279.105 -461.105 -280 -460 -280H947C948.104 -280 949 -279.105 949 -278V684C949 685.105 948.105 686 947 686H-460C-461.105 686 -462 685.105 -462 684V-278Z"  />
<path d="M-460 -279H947V-281H-460V-279ZM948 -278V684H950V-278H948ZM947 685H-460V687H947V685ZM-461 684V-278H-463V684H-461ZM-460 685C-460.552 685 -461 684.552 -461 684H-463C-463 685.657 -461.657 687 -460 687V685ZM948 684C948 684.552 947.552 685 947 685V687C948.657 687 950 685.657 950 684H948ZM947 -279C947.552 -279 948 -278.552 948 -278H950C950 -279.657 948.657 -281 947 -281V-279ZM-460 -281C-461.657 -281 -463 -279.657 -463 -278H-461C-461 -278.552 -460.552 -279 -460 -279V-281Z" fill="white" fill-opacity="0.1"/>
<path d="M7.42505 16.5999L12.8584 11.1666C13.5 10.5249 13.5 9.4749 12.8584 8.83324L7.42505 3.3999" stroke="white" stroke-width="1.5" stroke-miterlimit="10" stroke-linecap="round" stroke-linejoin="round"/>
</svg>
