<svg width="12" height="12" viewBox="0 0 12 12" fill="none" xmlns="http://www.w3.org/2000/svg">
<rect width="12" height="12"  />
<path d="M-474 -438C-474 -439.105 -473.105 -440 -472 -440H935C936.104 -440 937 -439.105 937 -438V524C937 525.105 936.105 526 935 526H-472C-473.105 526 -474 525.105 -474 524V-438Z"  />
<path d="M-472 -439H935V-441H-472V-439ZM936 -438V524H938V-438H936ZM935 525H-472V527H935V525ZM-473 524V-438H-475V524H-473ZM-472 525C-472.552 525 -473 524.552 -473 524H-475C-475 525.657 -473.657 527 -472 527V525ZM936 524C936 524.552 935.552 525 935 525V527C936.657 527 938 525.657 938 524H936ZM935 -439C935.552 -439 936 -438.552 936 -438H938C938 -439.657 936.657 -441 935 -441V-439ZM-472 -441C-473.657 -441 -475 -439.657 -475 -438H-473C-473 -438.552 -472.552 -439 -472 -439V-441Z" fill="#555" fill-opacity="0.1"/>
<path d="M7.21497 2.96484L10.25 5.99984L7.21497 9.03484" stroke="#555" stroke-miterlimit="10" stroke-linecap="round" stroke-linejoin="round"/>
<path d="M1.75 6H10.165" stroke="#555" stroke-miterlimit="10" stroke-linecap="round" stroke-linejoin="round"/>
</svg>
