<svg width="21" height="20" viewBox="0 0 21 20" fill="none" xmlns="http://www.w3.org/2000/svg">
<path d="M18.8087 15.2751C18.8087 15.5751 18.742 15.8834 18.6003 16.1834C18.4587 16.4834 18.2753 16.7667 18.0337 17.0334C17.6253 17.4834 17.1753 17.8084 16.667 18.0167C16.167 18.2251 15.6253 18.3334 15.042 18.3334C14.192 18.3334 13.2837 18.1334 12.3253 17.7251C11.367 17.3167 10.4087 16.7667 9.45866 16.0751C8.50033 15.3751 7.59199 14.6001 6.72533 13.7417C5.86699 12.8751 5.09199 11.9667 4.40033 11.0167C3.71699 10.0667 3.16699 9.11675 2.76699 8.17508C2.36699 7.22508 2.16699 6.31675 2.16699 5.45008C2.16699 4.88341 2.26699 4.34175 2.46699 3.84175C2.66699 3.33341 2.98366 2.86675 3.42533 2.45008C3.95866 1.92508 4.54199 1.66675 5.15866 1.66675C5.39199 1.66675 5.62533 1.71675 5.83366 1.81675C6.05033 1.91675 6.24199 2.06675 6.39199 2.28341L8.32533 5.00841C8.47533 5.21675 8.58366 5.40841 8.65866 5.59175C8.73366 5.76675 8.77533 5.94175 8.77533 6.10008C8.77533 6.30008 8.71699 6.50008 8.60033 6.69175C8.49199 6.88341 8.33366 7.08341 8.13366 7.28341L7.50033 7.94175C7.40866 8.03341 7.36699 8.14175 7.36699 8.27508C7.36699 8.34175 7.37533 8.40008 7.39199 8.46675C7.41699 8.53341 7.44199 8.58341 7.45866 8.63341C7.60866 8.90841 7.86699 9.26675 8.23366 9.70008C8.60866 10.1334 9.00866 10.5751 9.44199 11.0167C9.89199 11.4584 10.3253 11.8667 10.767 12.2417C11.2003 12.6084 11.5587 12.8584 11.842 13.0084C11.8837 13.0251 11.9337 13.0501 11.992 13.0751C12.0587 13.1001 12.1253 13.1084 12.2003 13.1084C12.342 13.1084 12.4503 13.0584 12.542 12.9667L13.1753 12.3417C13.3837 12.1334 13.5837 11.9751 13.7753 11.8751C13.967 11.7584 14.1587 11.7001 14.367 11.7001C14.5253 11.7001 14.692 11.7334 14.8753 11.8084C15.0587 11.8834 15.2503 11.9917 15.4587 12.1334L18.217 14.0917C18.4337 14.2417 18.5837 14.4167 18.6753 14.6251C18.7587 14.8334 18.8087 15.0417 18.8087 15.2751Z" fill="#5C2D91" stroke="white" stroke-width="1.2" stroke-miterlimit="10"/>
<path d="M15.9167 7.50016C15.9167 7.00016 15.525 6.2335 14.9417 5.6085C14.4083 5.0335 13.7 4.5835 13 4.5835" stroke="#5C2D91" stroke-width="1.2" stroke-linecap="round" stroke-linejoin="round"/>
<path d="M18.8333 7.50008C18.8333 4.27508 16.225 1.66675 13 1.66675" stroke="#5C2D91" stroke-width="1.2" stroke-linecap="round" stroke-linejoin="round"/>
</svg>
