<svg width="16" height="16" viewBox="0 0 16 16" fill="none" xmlns="http://www.w3.org/2000/svg">
<rect width="16" height="16"  />
<path d="M-541 -507C-541 -508.105 -540.105 -509 -539 -509H868C869.104 -509 870 -508.105 870 -507V455C870 456.105 869.105 457 868 457H-539C-540.105 457 -541 456.105 -541 455V-507Z"  />
<path d="M-539 -508H868V-510H-539V-508ZM869 -507V455H871V-507H869ZM868 456H-539V458H868V456ZM-540 455V-507H-542V455H-540ZM-539 456C-539.552 456 -540 455.552 -540 455H-542C-542 456.657 -540.657 458 -539 458V456ZM869 455C869 455.552 868.552 456 868 456V458C869.657 458 871 456.657 871 455H869ZM868 -508C868.552 -508 869 -507.552 869 -507H871C871 -508.657 869.657 -510 868 -510V-508ZM-539 -510C-540.657 -510 -542 -508.657 -542 -507H-540C-540 -507.552 -539.552 -508 -539 -508V-510Z" fill="white" fill-opacity="0.1"/>
<path d="M14.6667 8.00016C14.6667 11.6802 11.68 14.6668 8.00004 14.6668C4.32004 14.6668 1.33337 11.6802 1.33337 8.00016C1.33337 4.32016 4.32004 1.3335 8.00004 1.3335C11.68 1.3335 14.6667 4.32016 14.6667 8.00016Z" stroke="white" stroke-linecap="round" stroke-linejoin="round"/>
<path d="M10.4733 10.1202L8.40663 8.88684C8.04663 8.6735 7.7533 8.16017 7.7533 7.74017V5.00684" stroke="white" stroke-linecap="round" stroke-linejoin="round"/>
</svg>
