<svg width="24" height="24" viewBox="0 0 24 24" fill="none" xmlns="http://www.w3.org/2000/svg">
<rect width="24" height="24"  />
<path d="M-870 -523C-870 -524.105 -869.105 -525 -868 -525H539C540.104 -525 541 -524.105 541 -523V439C541 440.105 540.105 441 539 441H-868C-869.105 441 -870 440.105 -870 439V-523Z"  />
<path d="M-868 -524H539V-526H-868V-524ZM540 -523V439H542V-523H540ZM539 440H-868V442H539V440ZM-869 439V-523H-871V439H-869ZM-868 440C-868.552 440 -869 439.552 -869 439H-871C-871 440.657 -869.657 442 -868 442V440ZM540 439C540 439.552 539.552 440 539 440V442C540.657 442 542 440.657 542 439H540ZM539 -524C539.552 -524 540 -523.552 540 -523H542C542 -524.657 540.657 -526 539 -526V-524ZM-868 -526C-869.657 -526 -871 -524.657 -871 -523H-869C-869 -523.552 -868.552 -524 -868 -524V-526Z" fill="white" fill-opacity="0.1"/>
<path d="M12.881 21.6304H10.248C9.3463 21.6304 8.58885 20.8729 8.58885 19.9712V14.0559H7.83141C6.92969 14.0559 6.17224 13.2985 6.17224 12.3968V10.1605C6.17224 9.25878 6.92969 8.50133 7.83141 8.50133H8.62492V7.77995C8.62492 4.46162 10.5366 2.36963 13.6385 2.36963C14.7206 2.36963 15.6583 2.44177 16.0551 2.47784C16.8847 2.58604 17.4979 3.30742 17.4979 4.137V6.37327C17.4979 7.27499 16.7404 8.03244 15.8387 8.03244H14.6123V8.50133H15.7666C16.6683 8.50133 17.4257 9.25878 17.4257 10.1605C17.4257 10.2687 17.4257 10.3408 17.3896 10.449L17.029 12.6132C16.9208 13.4067 16.1994 14.0199 15.3698 14.0199H14.6123V19.9352C14.5763 20.8729 13.8188 21.6304 12.881 21.6304ZM7.83141 10.0162C7.75927 10.0162 7.68713 10.0884 7.68713 10.1605V12.3968C7.68713 12.4689 7.75927 12.541 7.83141 12.541H9.38237C9.81519 12.541 10.1398 12.8657 10.1398 13.2985V19.9352C10.1398 20.0073 10.212 20.0794 10.2841 20.0794H12.9171C12.9893 20.0794 13.0614 20.0073 13.0614 19.9352V13.2985C13.0614 12.8657 13.386 12.541 13.8188 12.541H15.3337C15.4059 12.541 15.478 12.4689 15.478 12.3968L15.8387 10.1605C15.8387 10.0884 15.7666 10.0162 15.6944 10.0162H13.7828C13.3499 10.0162 13.0253 9.6916 13.0253 9.25878V7.74389C13.0253 7.41927 13.0614 7.20285 13.1335 7.02251C13.2057 6.84216 13.3139 6.73396 13.4942 6.66182C13.6746 6.55361 13.927 6.51755 14.2877 6.51755H15.8026C15.8748 6.51755 15.9469 6.44541 15.9469 6.37327V4.137C15.9469 4.06486 15.8748 3.99273 15.8026 3.99273C15.5141 3.95666 14.6123 3.88452 13.6024 3.88452C10.5726 3.88452 10.1037 6.3372 10.1037 7.77995V9.25878C10.1037 9.6916 9.77912 10.0162 9.3463 10.0162H7.83141Z" fill="white"/>
</svg>
