<svg width="16" height="16" viewBox="0 0 16 16" fill="none" xmlns="http://www.w3.org/2000/svg">
<rect width="16" height="16"  />
<path d="M-615 -627C-615 -628.105 -614.105 -629 -613 -629H794C795.104 -629 796 -628.105 796 -627V335C796 336.105 795.105 337 794 337H-613C-614.105 337 -615 336.105 -615 335V-627Z"  />
<path d="M-613 -628H794V-630H-613V-628ZM795 -627V335H797V-627H795ZM794 336H-613V338H794V336ZM-614 335V-627H-616V335H-614ZM-613 336C-613.552 336 -614 335.552 -614 335H-616C-616 336.657 -614.657 338 -613 338V336ZM795 335C795 335.552 794.552 336 794 336V338C795.657 338 797 336.657 797 335H795ZM794 -628C794.552 -628 795 -627.552 795 -627H797C797 -628.657 795.657 -630 794 -630V-628ZM-613 -630C-614.657 -630 -616 -628.657 -616 -627H-614C-614 -627.552 -613.552 -628 -613 -628V-630Z" fill="white" fill-opacity="0.1"/>
<path d="M13.3334 4.6665L6.66671 11.3332L3.33337 7.99984" stroke="white" stroke-linecap="round" stroke-linejoin="round"/>
</svg>
