<svg width="24" height="24" viewBox="0 0 24 24" fill="none" xmlns="http://www.w3.org/2000/svg">
<rect width="24" height="24"  />
<path d="M-766 -523C-766 -524.105 -765.105 -525 -764 -525H643C644.104 -525 645 -524.105 645 -523V439C645 440.105 644.105 441 643 441H-764C-765.105 441 -766 440.105 -766 439V-523Z"  />
<path d="M-764 -524H643V-526H-764V-524ZM644 -523V439H646V-523H644ZM643 440H-764V442H643V440ZM-765 439V-523H-767V439H-765ZM-764 440C-764.552 440 -765 439.552 -765 439H-767C-767 440.657 -765.657 442 -764 442V440ZM644 439C644 439.552 643.552 440 643 440V442C644.657 442 646 440.657 646 439H644ZM643 -524C643.552 -524 644 -523.552 644 -523H646C646 -524.657 644.657 -526 643 -526V-524ZM-764 -526C-765.657 -526 -767 -524.657 -767 -523H-765C-765 -523.552 -764.552 -524 -764 -524V-526Z" fill="white" fill-opacity="0.1"/>
<path d="M12 20.25C10.231 20.25 8.958 20.2491 7.9655 20.1529C6.98437 20.0578 6.35675 19.875 5.85588 19.5602C5.28341 19.2006 4.79934 18.7166 4.43962 18.1441C4.125 17.6432 3.94213 17.0156 3.84713 16.0345C3.75088 15.042 3.75 13.769 3.75 12C3.75 10.231 3.75088 8.958 3.84713 7.9655C3.94213 6.98437 4.125 6.35675 4.43962 5.85588C4.79932 5.28339 5.28339 4.79932 5.85588 4.43962C6.35675 4.125 6.98437 3.94213 7.9655 3.84713C8.95787 3.75088 10.2309 3.75 12 3.75C13.769 3.75 15.042 3.75088 16.0345 3.84713C17.0156 3.94213 17.6432 4.125 18.1441 4.43962C18.7166 4.79934 19.2006 5.28341 19.5602 5.85588C19.875 6.35675 20.0578 6.98437 20.1529 7.9655C20.2491 8.958 20.25 10.231 20.25 12C20.25 13.769 20.2491 15.042 20.1529 16.0345C20.0578 17.0156 19.875 17.6432 19.5602 18.1441C19.2006 18.7165 18.7165 19.2006 18.1441 19.5602C17.6432 19.875 17.0156 20.0578 16.0345 20.1529C15.042 20.2491 13.769 20.25 12 20.25Z" stroke="white" stroke-width="1.5"/>
<path d="M12 15.75C14.0711 15.75 15.75 14.0711 15.75 12C15.75 9.92893 14.0711 8.25 12 8.25C9.92893 8.25 8.25 9.92893 8.25 12C8.25 14.0711 9.92893 15.75 12 15.75Z" stroke="white" stroke-width="1.5"/>
<path d="M16.875 8.25C17.4963 8.25 18 7.74632 18 7.125C18 6.50368 17.4963 6 16.875 6C16.2537 6 15.75 6.50368 15.75 7.125C15.75 7.74632 16.2537 8.25 16.875 8.25Z" fill="white"/>
</svg>
