<svg width="20" height="20" viewBox="0 0 20 20" fill="none" xmlns="http://www.w3.org/2000/svg">
<rect width="20" height="20"  />
<path d="M-920 -327C-920 -328.105 -919.105 -329 -918 -329H489C490.104 -329 491 -328.105 491 -327V635C491 636.105 490.105 637 489 637H-918C-919.105 637 -920 636.105 -920 635V-327Z"  />
<path d="M-918 -328H489V-330H-918V-328ZM490 -327V635H492V-327H490ZM489 636H-918V638H489V636ZM-919 635V-327H-921V635H-919ZM-918 636C-918.552 636 -919 635.552 -919 635H-921C-921 636.657 -919.657 638 -918 638V636ZM490 635C490 635.552 489.552 636 489 636V638C490.657 638 492 636.657 492 635H490ZM489 -328C489.552 -328 490 -327.552 490 -327H492C492 -328.657 490.657 -330 489 -330V-328ZM-918 -330C-919.657 -330 -921 -328.657 -921 -327H-919C-919 -327.552 -918.552 -328 -918 -328V-330Z" fill="#666666" fill-opacity="0.1"/>
<path d="M10 11.1917C11.436 11.1917 12.6 10.0276 12.6 8.5917C12.6 7.15576 11.436 5.9917 10 5.9917C8.56408 5.9917 7.40002 7.15576 7.40002 8.5917C7.40002 10.0276 8.56408 11.1917 10 11.1917Z" stroke="#666666" stroke-width="1.2"/>
<path d="M3.01663 7.07484C4.65829 -0.141827 15.35 -0.133494 16.9833 7.08317C17.9416 11.3165 15.3083 14.8998 13 17.1165C11.325 18.7332 8.67496 18.7332 6.99163 17.1165C4.69163 14.8998 2.05829 11.3082 3.01663 7.07484Z" stroke="#666666" stroke-width="1.2"/>
</svg>
