<svg width="16" height="16" viewBox="0 0 16 16" fill="none" xmlns="http://www.w3.org/2000/svg">
<rect width="16" height="16"  />
<path d="M-502 -507C-502 -508.105 -501.105 -509 -500 -509H907C908.104 -509 909 -508.105 909 -507V455C909 456.105 908.105 457 907 457H-500C-501.105 457 -502 456.105 -502 455V-507Z"  />
<path d="M-500 -508H907V-510H-500V-508ZM908 -507V455H910V-507H908ZM907 456H-500V458H907V456ZM-501 455V-507H-503V455H-501ZM-500 456C-500.552 456 -501 455.552 -501 455H-503C-503 456.657 -501.657 458 -500 458V456ZM908 455C908 455.552 907.552 456 907 456V458C908.657 458 910 456.657 910 455H908ZM907 -508C907.552 -508 908 -507.552 908 -507H910C910 -508.657 908.657 -510 907 -510V-508ZM-500 -510C-501.657 -510 -503 -508.657 -503 -507H-501C-501 -507.552 -500.552 -508 -500 -508V-510Z" fill="white" fill-opacity="0.1"/>
<path d="M8.00004 8.95346C9.1488 8.95346 10.08 8.02221 10.08 6.87346C10.08 5.7247 9.1488 4.79346 8.00004 4.79346C6.85129 4.79346 5.92004 5.7247 5.92004 6.87346C5.92004 8.02221 6.85129 8.95346 8.00004 8.95346Z" stroke="white"/>
<path d="M2.4133 5.66016C3.72664 -0.113169 12.28 -0.106502 13.5866 5.66683C14.3533 9.0535 12.2466 11.9202 10.4 13.6935C9.05997 14.9868 6.93997 14.9868 5.5933 13.6935C3.7533 11.9202 1.64664 9.04683 2.4133 5.66016Z" stroke="white"/>
</svg>
