<svg width="20" height="20" viewBox="0 0 20 20" fill="none" xmlns="http://www.w3.org/2000/svg">
<rect width="20" height="20"  />
<path d="M-746 -327C-746 -328.105 -745.105 -329 -744 -329H663C664.104 -329 665 -328.105 665 -327V635C665 636.105 664.105 637 663 637H-744C-745.105 637 -746 636.105 -746 635V-327Z"  />
<path d="M-744 -328H663V-330H-744V-328ZM664 -327V635H666V-327H664ZM663 636H-744V638H663V636ZM-745 635V-327H-747V635H-745ZM-744 636C-744.552 636 -745 635.552 -745 635H-747C-747 636.657 -745.657 638 -744 638V636ZM664 635C664 635.552 663.552 636 663 636V638C664.657 638 666 636.657 666 635H664ZM663 -328C663.552 -328 664 -327.552 664 -327H666C666 -328.657 664.657 -330 663 -330V-328ZM-744 -330C-745.657 -330 -747 -328.657 -747 -327H-745C-745 -327.552 -744.552 -328 -744 -328V-330Z" fill="#666666" fill-opacity="0.1"/>
<path d="M10.1334 9.05817C10.05 9.04984 9.95005 9.04984 9.85838 9.05817C7.87505 8.9915 6.30005 7.3665 6.30005 5.3665C6.30005 3.32484 7.95005 1.6665 10 1.6665C12.0417 1.6665 13.7001 3.32484 13.7001 5.3665C13.6917 7.3665 12.1167 8.9915 10.1334 9.05817Z" stroke="#666666" stroke-width="1.2" stroke-linecap="round" stroke-linejoin="round"/>
<path d="M5.96672 12.1335C3.95006 13.4835 3.95006 15.6835 5.96672 17.0252C8.25839 18.5585 12.0167 18.5585 14.3084 17.0252C16.3251 15.6752 16.3251 13.4752 14.3084 12.1335C12.0251 10.6085 8.26672 10.6085 5.96672 12.1335Z" stroke="#666666" stroke-width="1.2" stroke-linecap="round" stroke-linejoin="round"/>
</svg>
