<svg width="20" height="20" viewBox="0 0 20 20" fill="none" xmlns="http://www.w3.org/2000/svg">
<rect width="20" height="20"  />
<path d="M-537 -396C-537 -397.105 -536.105 -398 -535 -398H872C873.104 -398 874 -397.105 874 -396V566C874 567.105 873.105 568 872 568H-535C-536.105 568 -537 567.105 -537 566V-396Z"  />
<path d="M-535 -397H872V-399H-535V-397ZM873 -396V566H875V-396H873ZM872 567H-535V569H872V567ZM-536 566V-396H-538V566H-536ZM-535 567C-535.552 567 -536 566.552 -536 566H-538C-538 567.657 -536.657 569 -535 569V567ZM873 566C873 566.552 872.552 567 872 567V569C873.657 569 875 567.657 875 566H873ZM872 -397C872.552 -397 873 -396.552 873 -396H875C875 -397.657 873.657 -399 872 -399V-397ZM-535 -399C-536.657 -399 -538 -397.657 -538 -396H-536C-536 -396.552 -535.552 -397 -535 -397V-399Z" fill="#101228" fill-opacity="0.1"/>
<path d="M9.58329 17.4998C13.9555 17.4998 17.5 13.9554 17.5 9.58317C17.5 5.21092 13.9555 1.6665 9.58329 1.6665C5.21104 1.6665 1.66663 5.21092 1.66663 9.58317C1.66663 13.9554 5.21104 17.4998 9.58329 17.4998Z" stroke="#101228" stroke-width="1.5" stroke-linecap="round" stroke-linejoin="round"/>
<path d="M18.3333 18.3332L16.6666 16.6665" stroke="#101228" stroke-width="1.5" stroke-linecap="round" stroke-linejoin="round"/>
</svg>
