<svg width="20" height="20" viewBox="0 0 20 20" fill="none" xmlns="http://www.w3.org/2000/svg">
<rect width="20" height="20"  />
<path d="M-881 -327C-881 -328.105 -880.105 -329 -879 -329H528C529.104 -329 530 -328.105 530 -327V635C530 636.105 529.105 637 528 637H-879C-880.105 637 -881 636.105 -881 635V-327Z"  />
<path d="M-879 -328H528V-330H-879V-328ZM529 -327V635H531V-327H529ZM528 636H-879V638H528V636ZM-880 635V-327H-882V635H-880ZM-879 636C-879.552 636 -880 635.552 -880 635H-882C-882 636.657 -880.657 638 -879 638V636ZM529 635C529 635.552 528.552 636 528 636V638C529.657 638 531 636.657 531 635H529ZM528 -328C528.552 -328 529 -327.552 529 -327H531C531 -328.657 529.657 -330 528 -330V-328ZM-879 -330C-880.657 -330 -882 -328.657 -882 -327H-880C-880 -327.552 -879.552 -328 -879 -328V-330Z" fill="white" fill-opacity="0.1"/>
<path d="M3.33337 8.33317C3.33337 5.19047 3.33337 3.61913 4.30968 2.64281C5.286 1.6665 6.85734 1.6665 10 1.6665C13.1427 1.6665 14.7141 1.6665 15.6904 2.64281C16.6667 3.61913 16.6667 5.19047 16.6667 8.33317V11.6665C16.6667 14.8092 16.6667 16.3805 15.6904 17.3569C14.7141 18.3332 13.1427 18.3332 10 18.3332C6.85734 18.3332 5.286 18.3332 4.30968 17.3569C3.33337 16.3805 3.33337 14.8092 3.33337 11.6665V8.33317Z" stroke="#666666" stroke-width="1.2"/>
<path d="M12.5 15.8335H7.5" stroke="#666666" stroke-width="1.2" stroke-linecap="round"/>
</svg>
