<svg width="21" height="20" viewBox="0 0 21 20" fill="none" xmlns="http://www.w3.org/2000/svg">
<path d="M14.8921 2.53394H6.10855C3.4735 2.53394 1.7168 3.85146 1.7168 6.92569V13.0741C1.7168 16.1484 3.4735 17.4659 6.10855 17.4659H14.8921C17.5271 17.4659 19.2838 16.1484 19.2838 13.0741V6.92569C19.2838 3.85146 17.5271 2.53394 14.8921 2.53394ZM15.3049 7.88309L12.5556 10.079C11.9759 10.5445 11.2381 10.7729 10.5003 10.7729C9.76249 10.7729 9.01589 10.5445 8.44496 10.079L5.69573 7.88309C5.41465 7.65472 5.37074 7.23311 5.59032 6.95204C5.8187 6.67097 6.23152 6.61827 6.51259 6.84664L9.26183 9.04252C9.92938 9.57831 11.0624 9.57831 11.73 9.04252L14.4792 6.84664C14.7603 6.61827 15.1819 6.66218 15.4015 6.95204C15.6299 7.23311 15.586 7.65472 15.3049 7.88309Z" fill="#5C2D91"/>
</svg>
