<svg width="20" height="20" viewBox="0 0 20 20" fill="none" xmlns="http://www.w3.org/2000/svg">
<rect width="20" height="20"  />
<path d="M-794 -327C-794 -328.105 -793.105 -329 -792 -329H615C616.104 -329 617 -328.105 617 -327V635C617 636.105 616.105 637 615 637H-792C-793.105 637 -794 636.105 -794 635V-327Z"  />
<path d="M-792 -328H615V-330H-792V-328ZM616 -327V635H618V-327H616ZM615 636H-792V638H615V636ZM-793 635V-327H-795V635H-793ZM-792 636C-792.552 636 -793 635.552 -793 635H-795C-795 636.657 -793.657 638 -792 638V636ZM616 635C616 635.552 615.552 636 615 636V638C616.657 638 618 636.657 618 635H616ZM615 -328C615.552 -328 616 -327.552 616 -327H618C618 -328.657 616.657 -330 615 -330V-328ZM-792 -330C-793.657 -330 -795 -328.657 -795 -327H-793C-793 -327.552 -792.552 -328 -792 -328V-330Z" fill="white" fill-opacity="0.1"/>
<path d="M14.1666 17.0832H5.83329C3.33329 17.0832 1.66663 15.8332 1.66663 12.9165V7.08317C1.66663 4.1665 3.33329 2.9165 5.83329 2.9165H14.1666C16.6666 2.9165 18.3333 4.1665 18.3333 7.08317V12.9165C18.3333 15.8332 16.6666 17.0832 14.1666 17.0832Z" stroke="#fff" stroke-width="1.2" stroke-miterlimit="10" stroke-linecap="round" stroke-linejoin="round"/>
<path d="M14.1667 7.5L11.5584 9.58333C10.7 10.2667 9.2917 10.2667 8.43337 9.58333L5.83337 7.5" stroke="#fff" stroke-width="1.2" stroke-miterlimit="10" stroke-linecap="round" stroke-linejoin="round"/>
</svg>
