<svg width="20" height="20" viewBox="0 0 20 20" fill="none" xmlns="http://www.w3.org/2000/svg">
<rect width="20" height="20"  />
<path d="M-759 -419C-759 -420.105 -758.105 -421 -757 -421H650C651.104 -421 652 -420.105 652 -419V543C652 544.105 651.105 545 650 545H-757C-758.105 545 -759 544.105 -759 543V-419Z"  />
<path d="M-757 -420H650V-422H-757V-420ZM651 -419V543H653V-419H651ZM650 544H-757V546H650V544ZM-758 543V-419H-760V543H-758ZM-757 544C-757.552 544 -758 543.552 -758 543H-760C-760 544.657 -758.657 546 -757 546V544ZM651 543C651 543.552 650.552 544 650 544V546C651.657 546 653 544.657 653 543H651ZM650 -420C650.552 -420 651 -419.552 651 -419H653C653 -420.657 651.657 -422 650 -422V-420ZM-757 -422C-758.657 -422 -760 -420.657 -760 -419H-758C-758 -419.552 -757.552 -420 -757 -420V-422Z" fill="white" fill-opacity="0.1"/>
<path d="M0 20L1.41356 14.8669C0.539637 13.3603 0.0811843 11.654 0.0859598 9.9097C0.0859598 4.44392 4.55587 0 10.043 0C12.7077 0 15.2101 1.03137 17.0869 2.90399C18.9685 4.77662 20.0048 7.26711 20 9.91445C20 15.3802 15.5301 19.8241 10.0382 19.8241H10.0334C8.36675 19.8241 6.72874 19.4059 5.2722 18.6169L0 20ZM5.5253 16.8251L5.82616 17.0057C7.09646 17.7567 8.553 18.1511 10.0382 18.1559H10.043C14.6036 18.1559 18.319 14.4629 18.319 9.9192C18.319 7.71863 17.4594 5.65114 15.8978 4.09221C14.3362 2.53327 12.254 1.67776 10.043 1.67776C5.48233 1.673 1.76695 5.36597 1.76695 9.9097C1.76695 11.4639 2.20153 12.98 3.03247 14.2918L3.22827 14.6055L2.39255 17.6426L5.5253 16.8251Z" fill="white"/>
<path d="M0.348633 19.6528L1.71444 14.6955C0.869167 13.2459 0.425041 11.5967 0.425041 9.91417C0.429817 4.6385 4.74213 0.34668 10.043 0.34668C12.617 0.34668 15.0287 1.34478 16.8434 3.15086C18.6581 4.95695 19.6562 7.36189 19.6562 9.91892C19.6562 15.1946 15.3391 19.4864 10.043 19.4864H10.0382C8.42885 19.4864 6.84815 19.0824 5.44414 18.322L0.348633 19.6528Z" fill="#5C2D91"/>
<path d="M0 20L1.41356 14.8669C0.539637 13.3603 0.0811843 11.654 0.0859598 9.9097C0.0859598 4.44392 4.55587 0 10.043 0C12.7077 0 15.2101 1.03137 17.0869 2.90399C18.9685 4.77662 20.0048 7.26711 20 9.91445C20 15.3802 15.5301 19.8241 10.0382 19.8241H10.0334C8.36675 19.8241 6.72874 19.4059 5.2722 18.6169L0 20ZM5.5253 16.8251L5.82616 17.0057C7.09646 17.7567 8.553 18.1511 10.0382 18.1559H10.043C14.6036 18.1559 18.319 14.4629 18.319 9.9192C18.319 7.71863 17.4594 5.65114 15.8978 4.09221C14.3362 2.53327 12.254 1.67776 10.043 1.67776C5.48233 1.673 1.76695 5.36597 1.76695 9.9097C1.76695 11.4639 2.20153 12.98 3.03247 14.2918L3.22827 14.6055L2.39255 17.6426L5.5253 16.8251Z" fill="white"/>
<path fill-rule="evenodd" clip-rule="evenodd" d="M7.55484 5.76503C7.36859 5.35153 7.1728 5.34203 6.9961 5.33727C6.85283 5.33252 6.68569 5.33252 6.51855 5.33252C6.3514 5.33252 6.08397 5.39431 5.85474 5.64145C5.62552 5.8886 4.9856 6.48746 4.9856 7.70895C4.9856 8.92568 5.87862 10.1044 6.00279 10.2707C6.12695 10.4371 7.72676 13.0179 10.253 14.0112C12.3543 14.8382 12.7841 14.6719 13.2377 14.6291C13.6914 14.5863 14.7086 14.0302 14.9187 13.4504C15.1241 12.8705 15.1241 12.3762 15.062 12.2717C14.9999 12.1671 14.8328 12.1053 14.5844 11.9818C14.3361 11.8582 13.1136 11.2593 12.8843 11.1738C12.6551 11.093 12.488 11.0502 12.3256 11.2973C12.1585 11.5445 11.6809 12.1006 11.5376 12.2669C11.3944 12.4333 11.2463 12.4523 10.998 12.3287C10.7497 12.2051 9.94739 11.9437 8.99705 11.0977C8.25684 10.4418 7.75541 9.6291 7.61214 9.38195C7.46888 9.1348 7.59782 9.00172 7.72198 8.87815C7.83182 8.76883 7.97031 8.58822 8.09448 8.44564C8.21864 8.30305 8.26162 8.19849 8.3428 8.03214C8.42399 7.86579 8.38578 7.7232 8.3237 7.59963C8.26162 7.48081 7.77451 6.25457 7.55484 5.76503Z" fill="white"/>
</svg>
