<svg width="16" height="16" viewBox="0 0 16 16" fill="none" xmlns="http://www.w3.org/2000/svg">
<rect width="16" height="16"  />
<path d="M-762 -643C-762 -644.105 -761.105 -645 -760 -645H647C648.104 -645 649 -644.105 649 -643V319C649 320.105 648.105 321 647 321H-760C-761.105 321 -762 320.105 -762 319V-643Z"  />
<path d="M-760 -644H647V-646H-760V-644ZM648 -643V319H650V-643H648ZM647 320H-760V322H647V320ZM-761 319V-643H-763V319H-761ZM-760 320C-760.552 320 -761 319.552 -761 319H-763C-763 320.657 -761.657 322 -760 322V320ZM648 319C648 319.552 647.552 320 647 320V322C648.657 322 650 320.657 650 319H648ZM647 -644C647.552 -644 648 -643.552 648 -643H650C650 -644.657 648.657 -646 647 -646V-644ZM-760 -646C-761.657 -646 -763 -644.657 -763 -643H-761C-761 -643.552 -760.552 -644 -760 -644V-646Z" fill="white" fill-opacity="0.1"/>
<path d="M14.6667 8.00016C14.6667 11.6802 11.68 14.6668 8.00004 14.6668C4.32004 14.6668 1.33337 11.6802 1.33337 8.00016C1.33337 4.32016 4.32004 1.3335 8.00004 1.3335C11.68 1.3335 14.6667 4.32016 14.6667 8.00016Z" stroke="white" stroke-linecap="round" stroke-linejoin="round"/>
<path d="M10.4733 10.1202L8.40663 8.88684C8.04663 8.6735 7.7533 8.16017 7.7533 7.74017V5.00684" stroke="white" stroke-linecap="round" stroke-linejoin="round"/>
</svg>
