<svg width="24" height="24" viewBox="0 0 24 24" fill="none" xmlns="http://www.w3.org/2000/svg">
<rect width="24" height="24"  />
<path d="M-818 -523C-818 -524.105 -817.105 -525 -816 -525H591C592.104 -525 593 -524.105 593 -523V439C593 440.105 592.105 441 591 441H-816C-817.105 441 -818 440.105 -818 439V-523Z"  />
<path d="M-816 -524H591V-526H-816V-524ZM592 -523V439H594V-523H592ZM591 440H-816V442H591V440ZM-817 439V-523H-819V439H-817ZM-816 440C-816.552 440 -817 439.552 -817 439H-819C-819 440.657 -817.657 442 -816 442V440ZM592 439C592 439.552 591.552 440 591 440V442C592.657 442 594 440.657 594 439H592ZM591 -524C591.552 -524 592 -523.552 592 -523H594C594 -524.657 592.657 -526 591 -526V-524ZM-816 -526C-817.657 -526 -819 -524.657 -819 -523H-817C-817 -523.552 -816.552 -524 -816 -524V-526Z" fill="white" fill-opacity="0.1"/>
<path d="M21.5563 7.19689C21.4423 6.77349 21.2192 6.38744 20.9091 6.0774C20.5991 5.76736 20.2131 5.54421 19.7897 5.43029C18.6324 4.98349 7.42336 4.7646 4.17176 5.4431C3.74831 5.55703 3.36224 5.78021 3.05218 6.09028C2.74212 6.40036 2.51896 6.78645 2.40506 7.20989C1.88276 9.50139 1.84311 14.4556 2.41786 16.7982C2.53179 17.2217 2.75496 17.6077 3.06502 17.9178C3.37507 18.2278 3.76114 18.451 4.18456 18.5649C6.47601 19.0923 17.3702 19.1665 19.8025 18.5649C20.2259 18.451 20.6119 18.2278 20.922 17.9178C21.232 17.6077 21.4551 17.2217 21.5691 16.7982C22.126 14.3017 22.1656 9.65489 21.5563 7.19689Z" stroke="white" stroke-width="1.5" stroke-linecap="round" stroke-linejoin="round"/>
<path d="M15.2835 11.9976L10.0604 9.00195V14.9931L15.2835 11.9976Z" stroke="white" stroke-width="1.5" stroke-linecap="round" stroke-linejoin="round"/>
</svg>
